<svg width="162" height="32" viewBox="0 0 162 32" fill="none" xmlns="http://www.w3.org/2000/svg">
<path d="M19.0648 7.44043L7.43945 24.2181H11.2637L18.0343 14.3254L24.5092 24.2181H30.4613L19.0648 7.44043Z" fill="#00156B"/>
<path d="M50.0232 15.6795V7.44043H53.1527V15.6795C53.1839 17.0292 52.9304 18.3703 52.4087 19.6154C51.955 20.6792 51.2236 21.6015 50.291 22.2855C49.3419 22.9626 48.2778 23.4618 47.1503 23.7587C45.8582 24.0945 44.527 24.2569 43.1921 24.2414C40.6054 24.381 38.0475 23.6426 35.9332 22.146C34.1457 20.7504 33.252 18.6113 33.252 15.7288V7.44602H38.2695V15.6851C38.2473 16.6009 38.4197 17.511 38.7754 18.3552C39.0676 19.0498 39.5402 19.6535 40.1444 20.1037C40.7072 20.5122 41.3365 20.8199 42.0044 21.0133C43.4132 21.3968 44.8989 21.3968 46.3077 21.0133C46.9756 20.8199 47.605 20.5122 48.1678 20.1037C48.7706 19.6549 49.2399 19.0504 49.5256 18.3552C49.8735 17.509 50.042 16.5998 50.0204 15.6851" fill="#00156B"/>
<path d="M68.1054 24.0107H63.2926V10.1096H55.9453V7.44043H75.461V10.1096H68.1092V24.0107" fill="#00156B"/>
<path d="M97.9946 21.5031C97.6166 21.5162 97.2423 21.4249 96.913 21.239C96.6212 21.0628 96.3731 20.8227 96.1875 20.5368C95.9953 20.2454 95.8034 19.9423 95.6119 19.6273C95.3698 19.2533 95.0796 18.9128 94.7488 18.6145C94.3468 18.2417 93.8886 17.9347 93.391 17.7049C96.2133 16.9379 97.6247 15.3656 97.6253 12.9878C97.6346 12.4013 97.5611 11.8164 97.4068 11.2505C97.2262 10.6912 96.9278 10.1772 96.5317 9.74295C96.0455 9.20167 95.4407 8.78025 94.7646 8.51162C93.7932 8.13776 92.7812 7.8793 91.7494 7.74155C90.2595 7.52631 88.7552 7.42617 87.25 7.44206H78.252V24.0077H83.0621V18.2081H87.3178C87.8879 18.1915 88.4495 18.3481 88.9286 18.6573C89.357 18.9386 89.7086 19.3221 89.9517 19.7733C90.1892 20.2185 90.4682 20.7055 90.7887 21.2344C91.0956 21.742 91.4339 22.2299 91.8015 22.6954C92.0678 23.0517 92.4158 23.3388 92.8162 23.5325C93.8033 23.9179 94.8633 24.0805 95.9206 24.0086H99.119V21.5087C99.119 21.5087 98.1145 21.4994 97.9909 21.4994M92.2944 13.9857C92.1763 14.2968 91.9826 14.5736 91.7308 14.7911C91.358 15.0888 90.9135 15.2831 90.4418 15.3547C89.706 15.4917 88.9582 15.554 88.2098 15.5407H83.0537V10.1094H88.2321C91.0402 10.1094 92.4442 11.0531 92.4442 12.9404C92.4551 13.295 92.4067 13.649 92.301 13.9876L92.2944 13.9857Z" fill="#00156B"/>
<path d="M106.719 7.44043H101.908V24.0107H106.719V7.44043Z" fill="#00156B"/>
<path d="M127.161 8.28434L127.045 11.5059C126.37 11.2449 125.768 11.0381 125.239 10.8856C124.479 10.6874 123.706 10.5414 122.926 10.4485C121.82 10.3045 120.704 10.2355 119.588 10.242C115.983 10.242 114.18 10.8887 114.18 12.1821C114.186 12.3753 114.248 12.5628 114.358 12.7212C114.469 12.8797 114.624 13.0023 114.803 13.074C115.323 13.3187 115.886 13.4563 116.46 13.4785L118.777 13.6534L121.427 13.8533C122.326 13.9202 123.217 14.0636 124.092 14.2821C124.895 14.4756 125.674 14.7563 126.417 15.1191C127.099 15.4604 127.669 15.9896 128.06 16.6443C128.488 17.374 128.703 18.2092 128.68 19.055C128.68 22.7224 125.382 24.5558 118.785 24.5551C115.66 24.6065 112.542 24.2504 109.51 23.4958V20.4128C110.918 20.8522 112.356 21.1907 113.813 21.4256C115.36 21.6417 116.922 21.7418 118.484 21.7251C120.014 21.7728 121.543 21.6143 123.03 21.2536C124.111 20.9386 124.652 20.3806 124.652 19.5795C124.646 19.338 124.567 19.1039 124.425 18.9083C124.283 18.7128 124.085 18.5651 123.857 18.4849C123.195 18.1997 122.488 18.0344 121.768 17.9966L118.944 17.7604L115.875 17.5027C114.907 17.4302 113.954 17.232 113.037 16.9131C112.208 16.6288 111.483 16.104 110.953 15.4055C110.403 14.6401 110.123 13.7129 110.159 12.7708C110.159 9.22677 113.097 7.45476 118.973 7.45476C121.727 7.37166 124.481 7.65025 127.163 8.2834" fill="#00156B"/>
<path d="M143.098 7.44043L131.473 24.2181H135.297L142.067 14.3254L148.545 24.2181H154.497L143.091 7.44043" fill="#00156B"/>
</svg>
